<?xml version="1.0" encoding="utf-8"?>
<!-- Generator: Adobe Illustrator 22.1.0, SVG Export Plug-In . SVG Version: 6.00 Build 0)  -->
<svg version="1.1" id="Layer_1" xmlns="http://www.w3.org/2000/svg" xmlns:xlink="http://www.w3.org/1999/xlink" x="0px" y="0px"
	 viewBox="0 0 262.6 309.9" style="enable-background:new 0 0 262.6 309.9;" xml:space="preserve">
<style type="text/css">
	.st0{fill:#0066B3;}
</style>
<g>
	<polygon class="st0" points="20.6,274.2 20.6,260 26.2,260 26.2,255.9 10.1,255.9 10.1,260 15.7,260 15.7,274.2 	"/>
	<polygon class="st0" points="43.4,259.8 43.4,255.9 28.4,255.9 28.4,274.2 43.7,274.2 43.7,270.1 33.4,270.1 33.4,266.6 
		42.6,266.6 42.6,262.9 33.4,262.9 33.4,259.8 	"/>
	<path class="st0" d="M48.2,258.3c-1.6,1.7-2.4,4-2.4,6.7c0,2.8,0.8,5,2.4,6.8c1.7,1.8,4,2.7,6.9,2.7s5.2-0.9,6.9-2.8
		c1.6-1.7,2.4-4,2.4-6.7s-0.8-5-2.4-6.7c-1.7-1.8-4-2.7-6.9-2.7C52.2,255.6,49.9,256.5,48.2,258.3z M58.5,261.3c0.7,1,1,2.2,1,3.7
		c0,1.6-0.3,2.8-1,3.8c-0.8,1.1-1.9,1.7-3.4,1.7s-2.6-0.6-3.4-1.7c-0.7-1-1-2.2-1-3.7s0.3-2.7,1-3.7c0.8-1.1,1.9-1.7,3.4-1.7
		C56.6,259.6,57.7,260.2,58.5,261.3z"/>
	<polygon class="st0" points="94.9,274.2 94.9,255.9 90,255.9 90,262.6 83.5,262.6 83.5,255.9 78.6,255.9 78.6,274.2 83.5,274.2 
		83.5,266.7 90,266.7 90,274.2 	"/>
	<path class="st0" d="M99.9,258.3c-1.6,1.7-2.5,4-2.5,6.7c0,2.8,0.8,5,2.4,6.8c1.7,1.8,4,2.7,6.9,2.7s5.2-0.9,6.9-2.8
		c1.6-1.7,2.4-4,2.4-6.7s-0.8-5-2.4-6.7c-1.7-1.8-4-2.7-6.8-2.7C103.9,255.6,101.6,256.5,99.9,258.3z M110.1,261.3
		c0.6,1,1,2.2,1,3.7c0,1.6-0.3,2.8-1,3.8c-0.8,1.1-1.9,1.7-3.4,1.7s-2.6-0.6-3.4-1.7c-0.6-1-1-2.2-1-3.7s0.3-2.7,1-3.7
		c0.8-1.1,1.9-1.7,3.4-1.7C108.2,259.6,109.4,260.2,110.1,261.3z"/>
	<polygon class="st0" points="123.7,255.9 118.7,255.9 118.7,274.2 123.3,274.2 123.3,262.8 129.9,274.2 135,274.2 135,255.9 
		130.3,255.9 130.3,267.1 	"/>
	<path class="st0" d="M146.9,259.6c0.9,0,1.7,0.2,2.4,0.6c0.9,0.5,1.3,1.1,1.3,1.9h5c-0.3-2.1-1.2-3.7-2.8-4.9
		c-1.5-1.1-3.5-1.7-5.8-1.7c-2.8,0-5.1,0.9-6.9,2.8c-1.7,1.8-2.5,4-2.5,6.7s0.8,5,2.5,6.7c1.7,1.8,4,2.8,6.9,2.8
		c2.4,0,4.1-0.8,5.3-2.3l0.3,2h3.2v-10h-7.9v3.5h3.5c-0.2,0.8-0.6,1.5-1.4,2c-0.8,0.5-1.7,0.7-2.9,0.7c-1.5,0-2.6-0.6-3.4-1.7
		c-0.7-1-1-2.2-1-3.7s0.3-2.7,1-3.7C144.3,260.2,145.4,259.6,146.9,259.6z"/>
	<path class="st0" d="M179.9,270.4c-0.6,0.3-1.3,0.4-2.1,0.4c-2.4,0-3.5-1-3.5-2.8h-4.9c0,2.2,0.8,3.8,2.4,5c1.4,1,3.4,1.5,5.7,1.5
		c2.4,0,4.2-0.4,5.7-1.3c1.7-1.1,2.6-2.7,2.6-4.8c0-1.5-0.6-2.7-1.7-3.6c-0.8-0.6-2.1-1.2-3.8-1.7l-4.4-1.2c-0.7-0.3-1-0.7-1-1.2
		c0-1,0.8-1.5,2.4-1.5c0.4,0,0.8,0,1.2,0.1c1.2,0.3,1.8,1,1.8,2h4.9c0-1.9-0.8-3.4-2.4-4.5c-1.3-0.9-3.1-1.4-5.2-1.4
		c-2.1,0-3.8,0.4-5.2,1.3c-1.7,1-2.5,2.4-2.5,4.3c0,1.5,0.6,2.7,1.8,3.6c0.8,0.6,2.1,1.1,3.8,1.6c1.1,0.3,2.1,0.5,2.9,0.7
		c1.6,0.5,2.5,1.2,2.5,1.9C180.8,269.7,180.5,270.1,179.9,270.4z"/>
	<rect x="188" y="255.9" class="st0" width="4.9" height="18.3"/>
	<polygon class="st0" points="196.3,255.9 196.3,274.2 210,274.2 210,270.1 201.2,270.1 201.2,255.9 	"/>
	<path class="st0" d="M214.1,258.3c-1.6,1.7-2.4,4-2.4,6.7c0,2.8,0.8,5,2.4,6.8c1.7,1.8,4,2.7,6.9,2.7s5.2-0.9,6.9-2.8
		c1.6-1.7,2.4-4,2.4-6.7s-0.8-5-2.4-6.7c-1.7-1.8-4-2.7-6.8-2.7C218.1,255.6,215.9,256.5,214.1,258.3z M224.4,261.3
		c0.6,1,1,2.2,1,3.7c0,1.6-0.3,2.8-1,3.8c-0.8,1.1-1.9,1.7-3.4,1.7s-2.6-0.6-3.4-1.7c-0.6-1-1-2.2-1-3.7s0.3-2.7,1-3.7
		c0.8-1.1,1.9-1.7,3.4-1.7C222.5,259.6,223.7,260.2,224.4,261.3z"/>
	<polygon class="st0" points="254,274.2 254,255.9 246.8,255.9 243.5,268.1 240.2,255.9 233,255.9 233,274.2 237.6,274.2 
		237.7,260.3 241.7,274.2 245.4,274.2 249.4,260.3 249.4,274.2 	"/>
	<path class="st0" d="M18.5,292.8h3.3c-0.2,0.7-0.6,1.3-1.3,1.8c-0.7,0.4-1.7,0.6-2.8,0.6c-1.4,0-2.5-0.5-3.2-1.5
		c-0.6-0.8-0.9-1.9-0.9-3.2c0-1.3,0.3-2.4,0.9-3.2c0.7-1,1.8-1.5,3.2-1.5c0.8,0,1.6,0.2,2.3,0.5c0.8,0.4,1.2,1,1.2,1.6h4.7
		c-0.3-1.8-1.1-3.2-2.7-4.3c-1.4-1-3.3-1.4-5.4-1.4c-2.7,0-4.8,0.8-6.5,2.4c-1.6,1.6-2.4,3.5-2.4,5.8c0,2.4,0.8,4.4,2.4,5.9
		c1.6,1.6,3.8,2.4,6.5,2.4c2.3,0,3.9-0.7,5-2l0.3,1.7h3v-8.7h-7.5v3.1H18.5z"/>
	<path class="st0" d="M82.9,294.6c-0.1-0.5-0.2-0.9-0.3-1.2c-0.1-0.4-0.3-0.7-0.4-0.9c-0.4-0.8-1.1-1.3-1.9-1.5
		c1.8-0.8,2.8-2.1,2.8-4c0-1.5-0.7-2.7-2-3.4c-1.1-0.7-2.6-1-4.3-1h-9.1v15.9h4.6v-5.8H76c1.7,0,2.6,1.1,2.6,3.3
		c0,0.4,0,0.9,0.1,1.4c0.2,0.6,0.3,1,0.4,1.1h4.6c-0.3-0.2-0.5-0.7-0.6-1.5L82.9,294.6z M76.4,289.4h-3.9v-3.6h3.7
		c1.5,0,2.3,0.6,2.3,1.7C78.5,288.8,77.8,289.4,76.4,289.4z"/>
	<path class="st0" d="M132.9,282.2c-2.7,0-4.9,0.8-6.5,2.4c-1.5,1.5-2.3,3.5-2.3,5.9s0.8,4.4,2.3,5.9c1.6,1.6,3.8,2.4,6.5,2.4
		s4.9-0.8,6.5-2.4c1.5-1.5,2.3-3.5,2.3-5.9s-0.8-4.4-2.3-5.9C137.8,282.9,135.6,282.2,132.9,282.2z M136.1,293.7
		c-0.7,1-1.8,1.4-3.2,1.4s-2.5-0.5-3.2-1.5c-0.6-0.8-0.9-1.9-0.9-3.2c0-1.3,0.3-2.4,0.9-3.2c0.7-1,1.8-1.5,3.2-1.5s2.5,0.5,3.2,1.5
		c0.6,0.8,0.9,1.9,0.9,3.2C137.1,291.8,136.7,292.9,136.1,293.7z"/>
	<path class="st0" d="M193.9,292.1c0,2.1-1.1,3.1-3.1,3.1c-2.1,0-3.1-1-3.1-3.1v-9.6H183v9.3c0,4.6,2.6,6.9,7.7,6.9
		c5.2,0,7.8-2.3,7.8-6.9v-9.3h-4.6V292.1z"/>
	<path class="st0" d="M253.6,283.7c-1.1-0.8-2.7-1.3-4.6-1.3h-8.5v15.9h4.6V293h3.8c2.1,0,3.7-0.5,4.8-1.3c1.1-0.9,1.6-2.3,1.6-4.2
		C255.4,286,254.8,284.6,253.6,283.7z M248.3,289.9h-3.1v-4.1h3.1c1.7,0,2.5,0.7,2.5,2.1C250.7,289.2,249.9,289.9,248.3,289.9z"/>
	<rect x="9.2" y="277" class="st0" width="245.4" height="1.3"/>
	<path class="st0" d="M254.4,59.9h-22.2v32c-11-45.2-51.6-78.8-99.9-78.8c-0.8,0-1.7,0-2.5,0c-0.4,0-0.8,0-1.2,0
		c-1.1,0-2.3,0.1-3.4,0.3c-45.5,3.2-83,36.2-93.1,79.6V59.4H9.4v180.2h245.1V59.9H254.4z M32.1,216.9v-77
		c8.8,37.8,38.3,67.8,75.8,77H32.1z M33.1,116.5c0-48.2,34.2-88.5,79.6-97.7c-7,5.2-13.4,13.8-18.7,25.4
		c-6.4,14-10.7,31.3-12.6,50.1H41.5v13.3h12.2V162h16.1v-54.9h10.6c-0.2,3.4-0.2,6.8-0.2,10.3c0,27.6,4.9,53.5,13.8,73.1
		c4.6,10.1,10,17.9,15.9,23.1C65.9,203.3,33.1,163.7,33.1,116.5z M132.3,216.1c-4.7,0-9.4-0.3-14-1c-19.7-10.4-34.5-50.3-34.5-97.8
		c0-53.1,18.4-96.7,41.7-100.3c1.4-0.1,2.8-0.2,4.2-0.2c24.1,1.4,43.6,45.9,43.6,100.5c0,49-15.7,89.9-36.4,98.7
		C135.4,216.1,133.9,216.1,132.3,216.1z M163.2,190.4c8.9-19.6,13.8-45.5,13.8-73.1s-4.9-53.6-13.8-73.1c-5.9-12.8-13-22-20.9-26.9
		c50,5,89.2,47.6,89.2,99.1c0,50.6-37.7,92.5-86.4,98.8C151.9,210.1,158,201.7,163.2,190.4z M232.2,216.9h-75.5
		c37.1-9.1,66.4-38.5,75.5-75.8V216.9z"/>
	<polygon class="st0" points="155.7,162 155.7,94.3 139.1,94.3 139.1,120.4 125.8,120.4 125.8,94.3 106.9,94.3 107.5,162 125.2,162 
		125.2,133.7 139.7,133.7 139.7,162 	"/>
	<path class="st0" d="M218.7,152.3c2.2-3.6,3.3-7.1,3.3-10.5c0-6.4-3.1-11.5-9.2-15.4c-8.2-5.1-13.1-8.6-14.6-10.6
		c-1-1.6-1.4-2.8-1.4-3.8c0-1.8,0.8-3.4,2.2-4.6c1.5-1.2,3.4-1.8,5.6-1.8c4,0,7.9,1.3,11.6,3.9V96.9c-4.1-2.1-8.8-3.1-13.9-3.1
		c-4.5,0-8.5,1-12,3.1c-3.5,2-5.9,4.8-7.2,8.4c-1,2.8-1.5,5.4-1.5,7.7c0,7,3.3,12.7,10,16.9c3.7,2.3,6.6,4,8.5,5.2
		c4.1,2.6,6.1,5.2,6.1,7.7v0.4c0,2-1.1,3.7-3.3,5c-2,1.2-4.3,1.8-6.9,1.8c-4.3,0-8.1-1.3-11.3-3.9v13.2c5.2,2.1,9.9,3.1,14.2,3.1
		C208.1,162.3,214.7,158.9,218.7,152.3z"/>
</g>
</svg>
